# xmcd
#
# Track frame offsets:
#	187
#	16012
#	29662
#	48787
#	69337
#	87712
#	104062
#	123187
#	141112
#	160462
#
# Disc length: 2394 seconds
#
# Revision: 1
# Processed by: cddbd v1.5PL3 Copyright (c) Steve Scherf et al.
# Submitted via: CDex 1.50Beta5
#
DISCID=8509580a
DTITLE=H2O - EMOTION
DYEAR=1900
DGENRE=Pop
TTITLE0=YOU and I
TTITLE1=想い出を風に乗せて
TTITLE2=愛は時を越えて
TTITLE3=明日への誓い
TTITLE4=想い出がいっぱい
TTITLE5=いつも君と
TTITLE6=Lost In The Rain
TTITLE7=10%の雨予報
TTITLE8=守れない約束
TTITLE9=二人の舟
EXTD=
EXTT0=
EXTT1=
EXTT2=
EXTT3=
EXTT4=
EXTT5=
EXTT6=
EXTT7=
EXTT8=
EXTT9=
PLAYORDER=
